PathFileType	4	(X/Y/Z)	/Users/itak/Documents/Research/Walk-IL/dataset/trc/00042_00004.trc
DataRate	CameraRate	NumFrames	NumMarkers	Units	OrigDataRate	OrigDataStartFrame	OrigNumFrames
100.000000	100.000000	4	53	mm	100.000000	337	540
Frame#	Time	RPSI			LPSI			L3			STRN			T10			C7			CLAV			RBAK			LBAK			LSHO			LUPA			LAEL			LAOL			LWTS			LWPS			LFRA			LIFD			LHPS			LHTS			RSHO			RUPA			RAEL			RAOL			RWTS			RWPS			RFRA			RIFD			RHTS			RHPS			RBHD			LFHD			RFHD			LBHD			LHIP			RHIP			RASI			LASI			LKNE			LTHI			LANK			LTIP			LTOE			LMT1			LMT5			LHEE			RKNE			RTHI			RANK			RTIP			RTOE			RMT1			RMT5			RHEE			
		X1	Y1	Z1	X2	Y2	Z2	X3	Y3	Z3	X4	Y4	Z4	X5	Y5	Z5	X6	Y6	Z6	X7	Y7	Z7	X8	Y8	Z8	X9	Y9	Z9	X10	Y10	Z10	X11	Y11	Z11	X12	Y12	Z12	X13	Y13	Z13	X14	Y14	Z14	X15	Y15	Z15	X16	Y16	Z16	X17	Y17	Z17	X18	Y18	Z18	X19	Y19	Z19	X20	Y20	Z20	X21	Y21	Z21	X22	Y22	Z22	X23	Y23	Z23	X24	Y24	Z24	X25	Y25	Z25	X26	Y26	Z26	X27	Y27	Z27	X28	Y28	Z28	X29	Y29	Z29	X30	Y30	Z30	X31	Y31	Z31	X32	Y32	Z32	X33	Y33	Z33	X34	Y34	Z34	X35	Y35	Z35	X36	Y36	Z36	X37	Y37	Z37	X38	Y38	Z38	X39	Y39	Z39	X40	Y40	Z40	X41	Y41	Z41	X42	Y42	Z42	X43	Y43	Z43	X44	Y44	Z44	X45	Y45	Z45	X46	Y46	Z46	X47	Y47	Z47	X48	Y48	Z48	X49	Y49	Z49	X50	Y50	Z50	X51	Y51	Z51	X52	Y52	Z52	X53	Y53	Z53	

338	3.37	-176.0426940917969	1060.98193359375	443.9972229003906	-44.67498397827148	1056.557739257812	348.5997009277344	-102.7537536621094	1119.215698242188	385.9755859375	13.31097221374512	1315.736572265625	579.4313354492188	-106.2009735107422	1263.621459960938	358.0696716308594	-66.15711975097656	1530.587646484375	393.5469970703125	-0.8541393876075745	1441.465698242188	537.7998046875	-164.4001159667969	1396.727416992188	384.4376220703125	10.70612907409668	1487.991577148438	332.696044921875	122.6917724609375	1494.51513671875	388.231201171875	179.1371307373047	1371.598266601562	321.6310119628906	210.6782836914062	1157.776245117188	300.9073486328125	105.5634231567383	1138.701538085938	296.448486328125	226.9949035644531	906.1213989257812	404.4501953125	224.5496215820312	891.2596435546875	316.4279479980469	230.6391906738281	1043.199584960938	307.2507629394531	237.3172302246094	722.526611328125	436.4942932128906	248.7697448730469	803.5596923828125	345.0531311035156	257.1739807128906	814.748779296875	415.5880737304688	-186.8336791992188	1519.873901367188	541.0087280273438	-259.5943298339844	1454.081665039062	557.3759765625	-320.0145874023438	1194.699096679688	523.6984252929688	-232.8495330810547	1159.343627929688	488.559814453125	-262.6368713378906	930.5679321289062	633.17138671875	-348.5789489746094	920.9827880859375	598.611083984375	-336.6379089355469	1118.811767578125	540.2581787109375	-244.6497955322266	751.5777587890625	637.65185546875	-267.6334228515625	822.3576049804688	669.9942626953125	-335.7993774414062	819.1117553710938	637.7454223632812	28.7537956237793	1712.875610351562	423.6814880371094	-58.49171447753906	1727.257934570312	623.8096923828125	36.9283561706543	1733.845825195312	604.1112060546875	-111.4195938110352	1701.789794921875	457.9759521484375	100.6499252319336	956.7637329101562	364.4605102539062	-189.4080657958984	952.7408447265625	603.5332641601562	-70.76593017578125	992.67578125	635.8369750976562	116.7355117797852	1005.538146972656	497.0856018066406	109.4178466796875	515.1552124023438	438.3735961914062	117.7414321899414	652.1309204101562	395.6830749511719	43.75963592529297	36.68847274780273	322.2583618164062	76.42814636230469	282.2975158691406	349.2317199707031	84.503173828125	36.32090377807617	547.7771606445312	44.4984016418457	44.97860336303711	500.6089782714844	119.084602355957	34.49367141723633	422.4134521484375	-34.42025375366211	46.70372009277344	283.31689453125	-61.61920547485352	554.6837158203125	745.270751953125	-148.3107757568359	806.6557006835938	664.8033447265625	-152.3608245849609	122.5714111328125	494.2956237792969	-83.78920745849609	430.712890625	700.97998046875	-32.10391235351562	61.92748641967773	685.273193359375	-27.81511306762695	79.4375	616.933349609375	-121.6906890869141	81.34421539306641	635.27783203125	-128.3755798339844	137.1288604736328	428.9981384277344	
339	3.38	-171.9040985107422	1060.853271484375	448.0572814941406	-39.80126571655273	1056.287109375	353.5687561035156	-97.98667907714844	1118.940673828125	390.5928955078125	16.7636547088623	1315.366333007812	584.9310302734375	-100.9157638549805	1263.346069335938	362.6943664550781	-61.09000015258789	1530.283081054688	398.5235595703125	3.02872633934021	1441.110595703125	543.2477416992188	-159.3567504882812	1396.457885742188	388.539794921875	16.25031852722168	1487.675170898438	338.2420654296875	127.704948425293	1494.15380859375	394.6760864257812	184.8357696533203	1371.258056640625	328.6279907226562	216.8924865722656	1157.41650390625	308.6936645507812	111.9429092407227	1138.14453125	303.2121276855469	232.9392852783203	906.571533203125	413.9803466796875	231.4390869140625	891.0709228515625	326.0677490234375	237.1401214599609	1042.96337890625	315.9013366699219	243.4615936279297	723.2681274414062	447.5541381835938	255.6095428466797	803.64501953125	355.6256103515625	263.2553100585938	815.4012451171875	426.1505126953125	-183.0248565673828	1519.53515625	544.9534912109375	-255.8548889160156	1453.744018554688	560.6920166015625	-316.1139831542969	1194.420532226562	526.292724609375	-228.6412353515625	1159.04248046875	491.9059753417969	-259.8416442871094	930.0806884765625	635.9559936523438	-345.5180969238281	920.6471557617188	600.641845703125	-332.8565673828125	1118.56103515625	542.6797485351562	-241.8829345703125	751.2301025390625	640.4814453125	-265.2964172363281	821.8384399414062	672.6121826171875	-333.2005615234375	818.6951293945312	639.736083984375	33.4664421081543	1712.601806640625	429.4839172363281	-54.95945358276367	1726.76611328125	629.1080932617188	40.54038619995117	1733.338256835938	609.9880981445312	-106.9620971679688	1701.51904296875	462.9240417480469	105.1969680786133	956.304443359375	370.1504516601562	-186.2250518798828	952.8904418945312	607.6703491210938	-67.69873046875	992.5411987304688	640.5736083984375	120.6357650756836	1004.817565917969	502.9634704589844	110.7226257324219	514.3768920898438	440.2648010253906	120.0134963989258	651.6370239257812	399.1138305664062	43.63741683959961	36.7927131652832	322.308837890625	76.96141815185547	282.2359619140625	349.9823303222656	84.44712066650391	36.23518371582031	547.7841796875	44.420166015625	44.90018081665039	500.6117553710938	119.0292358398438	34.47551727294922	422.4193115234375	-34.34450912475586	46.95052719116211	283.3560180664062	-59.34909057617188	556.7045288085938	753.11328125	-146.1766204833984	807.572998046875	669.8914794921875	-136.9741668701172	114.3778228759766	515.78857421875	-78.95396423339844	431.3553161621094	711.8958740234375	-20.22737312316895	63.56624603271484	711.4655151367188	-14.609450340271	78.47866058349609	642.64306640625	-109.1107025146484	79.29890441894531	658.7940673828125	-111.9844741821289	126.9655685424805	450.3993530273438	
340	3.39	-167.7989807128906	1060.58935546875	452.2352905273438	-35.03673934936523	1055.920288085938	358.6006469726562	-93.36453247070312	1118.575561523438	395.2726745605469	20.16501045227051	1314.90625	590.4669189453125	-95.78398132324219	1262.979858398438	367.3955383300781	-56.15615081787109	1529.894897460938	403.5789184570312	6.841851234436035	1440.674438476562	548.7462158203125	-154.4325714111328	1396.10205078125	392.7640686035156	21.61620140075684	1487.270141601562	343.8474731445312	132.5846252441406	1493.708862304688	401.134765625	190.3505706787109	1370.823486328125	335.633544921875	222.8844146728516	1156.951049804688	316.4970397949219	118.1008377075195	1137.485595703125	310.0656127929688	238.6498565673828	906.9127807617188	423.48681640625	237.9956207275391	890.7833251953125	335.7039794921875	243.3792724609375	1042.614135742188	324.5597229003906	249.3046112060547	723.89794921875	458.5611572265625	262.1167907714844	803.628662109375	366.17333984375	269.052978515625	815.93017578125	436.671142578125	-179.2793273925781	1519.109252929688	549.0314331054688	-252.1424102783203	1453.315185546875	564.1829833984375	-312.2555236816406	1194.04833984375	529.031494140625	-224.4657287597656	1158.651611328125	495.3813171386719	-257.0522155761719	929.4654541015625	638.781494140625	-342.4728698730469	920.1988525390625	602.745361328125	-329.1004333496094	1118.21630859375	545.2384033203125	-239.2550811767578	750.6383056640625	643.0916748046875	-262.9343872070312	821.1787719726562	675.22900390625	-330.61865234375	818.1539306640625	641.7521362304688	38.05996704101562	1712.233032226562	435.3201293945312	-51.51609420776367	1726.210083007812	634.4442138671875	44.05978775024414	1732.773681640625	615.8853759765625	-102.6007385253906	1701.150634765625	467.9216918945312	109.6371765136719	955.7866821289062	375.8500061035156	-183.0508575439453	952.8951416015625	611.8834838867188	-64.69057464599609	992.2966918945312	645.3740234375	124.4386215209961	1004.038269042969	508.86474609375	112.0021514892578	513.5823364257812	442.2692260742188	122.2609939575195	651.100341796875	402.6607666015625	43.52243804931641	36.91403198242188	322.3661499023438	77.48727416992188	282.1741638183594	350.7786254882812	84.38095855712891	36.14296340942383	547.7909545898438	44.35165023803711	44.8323860168457	500.6182861328125	118.9768829345703	34.45977783203125	422.4290771484375	-34.2692985534668	47.21006774902344	283.3971252441406	-57.25513458251953	558.4228515625	760.6011352539062	-144.1715393066406	808.2708129882812	675.0337524414062	-122.1981353759766	106.7667922973633	537.7293701171875	-74.30852508544922	431.9041748046875	722.6516723632812	-9.228079795837402	65.38058471679688	737.5952758789062	-2.220529556274414	77.81121063232422	668.4291381835938	-97.32311248779297	77.56298828125	682.427978515625	-96.16985321044922	117.424674987793	472.3575744628906	
341	3.4	-163.7172698974609	1060.18701171875	456.5449523925781	-30.38928413391113	1055.463623046875	363.6965026855469	-88.87893676757812	1118.117553710938	400.0251770019531	23.51837921142578	1314.3564453125	596.0440063476562	-90.81299591064453	1262.527221679688	372.1779479980469	-51.35285186767578	1529.427001953125	408.7168273925781	10.58281421661377	1440.156127929688	554.300048828125	-149.6269989013672	1395.66259765625	397.1139221191406	26.80252075195312	1486.780151367188	349.5101318359375	137.3359375	1493.178588867188	407.6127014160156	195.6868286132812	1370.295043945312	342.6531982421875	228.6560211181641	1156.380737304688	324.31298828125	124.0376281738281	1136.728393554688	317.0003967285156	244.1198272705078	907.141845703125	432.9647521972656	244.2242126464844	890.3938598632812	345.3278503417969	249.3544158935547	1042.152465820312	333.2159423828125	254.8599700927734	724.4172973632812	469.5061645507812	268.2979125976562	803.5119018554688	376.6838073730469	274.5714721679688	816.3370971679688	447.1402893066406	-175.5926666259766	1518.600341796875	553.246826171875	-248.4666748046875	1452.800659179688	567.8519897460938	-308.4369506835938	1193.585327148438	531.9257202148438	-220.3354034423828	1158.177001953125	498.9881286621094	-254.2779846191406	928.7307739257812	641.65869140625	-339.4400024414062	919.6398315429688	604.929443359375	-325.3751831054688	1117.776733398438	547.940185546875	-236.7470092773438	749.8275146484375	645.4716186523438	-260.5649108886719	820.4070434570312	677.8469848632812	-328.0455322265625	817.4930419921875	643.7999877929688	42.5313720703125	1711.770385742188	441.1904907226562	-48.15901947021484	1725.594482421875	639.8214721679688	47.49217987060547	1732.154296875	621.8048095703125	-98.33623504638672	1700.686157226562	472.973876953125	113.9647827148438	955.2129516601562	381.5477905273438	-179.8823547363281	952.7542724609375	616.1722412109375	-61.72379684448242	991.9417724609375	650.2421875	128.1589202880859	1003.206787109375	514.7843017578125	113.2641677856445	512.7744750976562	444.3812255859375	124.4846649169922	650.5250854492188	406.3139343261719	43.42621612548828	37.05474090576172	322.4284362792969	78.01590728759766	282.1148681640625	351.6172180175781	84.31254577636719	36.05443954467773	547.7977905273438	44.29963302612305	44.78024291992188	500.62890625	118.9384460449219	34.4473876953125	422.4429931640625	-34.20347213745117	47.48873901367188	283.43701171875	-55.29014587402344	559.837158203125	767.7434692382812	-142.2549133300781	808.7359619140625	680.2333984375	-108.1405715942383	99.76758575439453	560.01171875	-69.83602905273438	432.3554992675781	733.234375	1.030831933021545	67.32484436035156	763.5474243164062	9.416906356811523	77.42070007324219	694.1613159179688	-86.20851135253906	76.126220703125	706.1095581054688	-81.03555297851562	108.5578231811523	494.7766723632812	
